<?xml version="1.0" encoding="UTF-8" standalone="no"?>
<svg
   width="460.79999pt"
   height="365.81985pt"
   viewBox="0 0 460.8 365.81985"
   version="1.1"
   id="svg136"
   sodipodi:docname="guess_the_gap.svg"
   inkscape:version="1.4 (1:1.4+202410151213+e7c3feb100)"
   inkscape:export-filename="guess_the_gap_empty.png"
   inkscape:export-xdpi="700"
   inkscape:export-ydpi="700"
   xmlns:inkscape="http://www.inkscape.org/namespaces/inkscape"
   xmlns:sodipodi="http://sodipodi.sourceforge.net/DTD/sodipodi-0.dtd"
   xmlns:xlink="http://www.w3.org/1999/xlink"
   xmlns="http://www.w3.org/2000/svg"
   xmlns:svg="http://www.w3.org/2000/svg"
   xmlns:rdf="http://www.w3.org/1999/02/22-rdf-syntax-ns#"
   xmlns:cc="http://creativecommons.org/ns#"
   xmlns:dc="http://purl.org/dc/elements/1.1/">
  <sodipodi:namedview
     id="namedview136"
     pagecolor="#ffffff"
     bordercolor="#000000"
     borderopacity="0.25"
     inkscape:showpageshadow="2"
     inkscape:pageopacity="0.0"
     inkscape:pagecheckerboard="0"
     inkscape:deskcolor="#d1d1d1"
     inkscape:document-units="pt"
     inkscape:zoom="2.9017771"
     inkscape:cx="178.33899"
     inkscape:cy="332.72714"
     inkscape:window-width="3792"
     inkscape:window-height="2096"
     inkscape:window-x="0"
     inkscape:window-y="0"
     inkscape:window-maximized="1"
     inkscape:current-layer="matplotlib.axis_1" />
  <metadata
     id="metadata1">
    <rdf:RDF>
      <cc:Work>
        <dc:type
           rdf:resource="http://purl.org/dc/dcmitype/StillImage" />
        <dc:date>2024-10-16T14:32:00.589186</dc:date>
        <dc:format>image/svg+xml</dc:format>
        <dc:creator>
          <cc:Agent>
            <dc:title>Matplotlib v3.8.0, https://matplotlib.org/</dc:title>
          </cc:Agent>
        </dc:creator>
      </cc:Work>
    </rdf:RDF>
  </metadata>
  <defs
     id="defs1">
    <style
       type="text/css"
       id="style1">*{stroke-linejoin: round; stroke-linecap: butt}</style>
  </defs>
  <g
     id="figure_1">
    <g
       id="patch_1">
      <path
         d="M 0,345.6 H 460.8 V 0 H 0 Z"
         style="fill:#ffffff"
         id="path1" />
    </g>
    <g
       id="axes_1">
      <g
         id="patch_2">
        <path
           d="M 57.6,307.584 H 414.72 V 41.472 H 57.6 Z"
           style="fill:#ffffff"
           id="path2" />
      </g>
      <g
         id="patch_3">
        <path
           d="M 61.1712,307.584 H 89.7408 V 54.144 H 61.1712 Z"
           clip-path="url(#p9acc3d20f7)"
           style="fill:#3274a1"
           id="path3" />
      </g>
      <g
         id="patch_4">
        <path
           d="m 96.8832,307.584 h 28.5696 V 275.6976 H 96.8832 Z"
           clip-path="url(#p9acc3d20f7)"
           style="fill:#3274a1"
           id="path4" />
      </g>
      <g
         id="patch_5">
        <path
           d="m 132.5952,307.584 h 28.5696 v -10.23345 h -28.5696 z"
           clip-path="url(#p9acc3d20f7)"
           style="fill:#3274a1"
           id="path5" />
      </g>
      <g
         id="patch_6">
        <path
           d="m 168.3072,307.584 h 28.5696 v -10.0616 h -28.5696 z"
           clip-path="url(#p9acc3d20f7)"
           style="fill:#3274a1"
           id="path6" />
      </g>
      <g
         id="patch_7">
        <path
           d="m 204.0192,307.584 h 28.5696 v -4.03065 h -28.5696 z"
           clip-path="url(#p9acc3d20f7)"
           style="fill:#3274a1"
           id="path7" />
      </g>
      <g
         id="patch_8">
        <path
           d="m 239.7312,307.584 h 28.5696 v -3.58062 h -28.5696 z"
           clip-path="url(#p9acc3d20f7)"
           style="fill:#3274a1"
           id="path8" />
      </g>
      <g
         id="patch_9">
        <path
           d="m 275.4432,307.584 h 28.5696 v -3.03689 h -28.5696 z"
           clip-path="url(#p9acc3d20f7)"
           style="fill:#3274a1"
           id="path9" />
      </g>
      <g
         id="patch_10">
        <path
           d="m 311.1552,307.584 h 28.5696 v -2.76219 h -28.5696 z"
           clip-path="url(#p9acc3d20f7)"
           style="fill:#3274a1"
           id="path10" />
      </g>
      <g
         id="patch_11">
        <path
           d="m 346.8672,307.584 h 28.5696 v -2.52772 h -28.5696 z"
           clip-path="url(#p9acc3d20f7)"
           style="fill:#3274a1"
           id="path11" />
      </g>
      <g
         id="patch_12">
        <path
           d="m 382.5792,307.584 h 28.5696 v -2.06368 h -28.5696 z"
           clip-path="url(#p9acc3d20f7)"
           style="fill:#3274a1"
           id="path12" />
      </g>
      <g
         id="matplotlib.axis_1">
        <g
           id="text_11">
          <!-- word -->
          <g
             transform="matrix(0.1,0,0,-0.1,223.86937,365.67767)"
             id="g90">
            <path
               id="use87"
               d="M 4.203125,54.6875 H 13.1875 L 24.421875,12.015625 35.59375,54.6875 H 46.1875 L 57.421875,12.015625 68.609375,54.6875 H 77.59375 L 63.28125,0 H 52.6875 L 40.921875,44.828125 29.109375,0 H 18.5 Z"
               style="stroke-width:0.015625" />
            <path
               id="use88"
               d="m 112.39648,48.390625 q -7.21875,0 -11.42187,-5.640625 -4.203126,-5.640625 -4.203126,-15.453125 0,-9.8125 4.171876,-15.453125 4.1875,-5.640625 11.45312,-5.640625 7.1875,0 11.375,5.65625 4.20313,5.671875 4.20313,15.4375 0,9.71875 -4.20313,15.40625 -4.1875,5.6875 -11.375,5.6875 z m 0,7.609375 q 11.71875,0 18.40625,-7.625 6.70313,-7.609375 6.70313,-21.078125 0,-13.421875 -6.70313,-21.078125 -6.6875,-7.640625 -18.40625,-7.640625 -11.76562,0 -18.437496,7.640625 -6.65625,7.65625 -6.65625,21.078125 0,13.46875 6.65625,21.078125 Q 100.63086,56 112.39648,56 Z"
               style="stroke-width:0.015625" />
            <path
               id="use89"
               d="m 184.07812,46.296875 q -1.51562,0.875 -3.29687,1.28125 Q 179,48 176.85937,48 169.23437,48 165.15625,43.046875 161.07812,38.09375 161.07812,28.8125 V 0 h -9.03125 v 54.6875 h 9.03125 v -8.5 q 2.84375,4.984375 7.375,7.390625 Q 173,56 179.5,56 q 0.92187,0 2.04687,-0.125 1.125,-0.109375 2.48438,-0.359375 z"
               style="stroke-width:0.015625" />
            <path
               id="use90"
               d="m 227.73828,46.390625 v 29.59375 h 8.98438 V 0 h -8.98438 v 8.203125 q -2.82812,-4.875 -7.15625,-7.25 -4.3125,-2.375 -10.375,-2.375 -9.90625,0 -16.14062,7.90625 -6.21875,7.921875 -6.21875,20.8125 0,12.890625 6.21875,20.796875 Q 200.30078,56 210.20703,56 q 6.0625,0 10.375,-2.375 4.32813,-2.359375 7.15625,-7.234375 z m -30.60937,-19.09375 q 0,-9.90625 4.07812,-15.546875 4.07813,-5.640625 11.20313,-5.640625 7.125,0 11.21875,5.640625 4.10937,5.640625 4.10937,15.546875 0,9.90625 -4.10937,15.546875 -4.09375,5.640625 -11.21875,5.640625 -7.125,0 -11.20313,-5.640625 -4.07812,-5.640625 -4.07812,-15.546875 z"
               style="stroke-width:0.015625" />
          </g>
        </g>
      </g>
      <g
         id="matplotlib.axis_2">
        <g
           id="ytick_1">
          <g
             id="line2d_11">
            <defs
               id="defs90">
              <path
                 id="m430e361780"
                 d="M 0,0 H -3.5"
                 style="stroke:#000000;stroke-width:0.8" />
            </defs>
            <g
               id="g91">
              <use
                 xlink:href="#m430e361780"
                 x="57.599998"
                 y="307.58401"
                 style="stroke:#000000;stroke-width:0.8"
                 id="use91" />
            </g>
          </g>
          <g
             id="text_12">
            <!-- 0.0 -->
            <g
               transform="matrix(0.1,0,0,-0.1,34.696875,311.38322)"
               id="g94">
              <defs
                 id="defs91">
                <path
                   id="DejaVuSans-30"
                   d="m 2034,4250 q -487,0 -733,-480 -245,-479 -245,-1442 0,-959 245,-1439 246,-480 733,-480 491,0 736,480 246,480 246,1439 0,963 -246,1442 -245,480 -736,480 z m 0,500 q 785,0 1199,-621 414,-620 414,-1801 0,-1178 -414,-1799 -414,-620 -1199,-620 -784,0 -1198,620 -414,621 -414,1799 0,1181 414,1801 414,621 1198,621 z"
                   transform="scale(0.015625)" />
                <path
                   id="DejaVuSans-2e"
                   d="m 684,794 h 660 V 0 H 684 Z"
                   transform="scale(0.015625)" />
              </defs>
              <use
                 xlink:href="#DejaVuSans-30"
                 id="use92" />
              <use
                 xlink:href="#DejaVuSans-2e"
                 x="63.623047"
                 id="use93" />
              <use
                 xlink:href="#DejaVuSans-30"
                 x="95.410156"
                 id="use94" />
            </g>
          </g>
        </g>
        <g
           id="ytick_2">
          <g
             id="line2d_12">
            <g
               id="g95">
              <use
                 xlink:href="#m430e361780"
                 x="57.599998"
                 y="266.56711"
                 style="stroke:#000000;stroke-width:0.8"
                 id="use95" />
            </g>
          </g>
          <g
             id="text_13">
            <!-- 0.1 -->
            <g
               transform="matrix(0.1,0,0,-0.1,34.696875,270.36634)"
               id="g98">
              <defs
                 id="defs95">
                <path
                   id="DejaVuSans-31"
                   d="M 794,531 H 1825 V 4091 L 703,3866 v 575 l 1116,225 h 631 V 531 H 3481 V 0 H 794 Z"
                   transform="scale(0.015625)" />
              </defs>
              <use
                 xlink:href="#DejaVuSans-30"
                 id="use96" />
              <use
                 xlink:href="#DejaVuSans-2e"
                 x="63.623047"
                 id="use97" />
              <use
                 xlink:href="#DejaVuSans-31"
                 x="95.410156"
                 id="use98" />
            </g>
          </g>
        </g>
        <g
           id="ytick_3">
          <g
             id="line2d_13">
            <g
               id="g99">
              <use
                 xlink:href="#m430e361780"
                 x="57.599998"
                 y="225.55025"
                 style="stroke:#000000;stroke-width:0.8"
                 id="use99" />
            </g>
          </g>
          <g
             id="text_14">
            <!-- 0.2 -->
            <g
               transform="matrix(0.1,0,0,-0.1,34.696875,229.34946)"
               id="g102">
              <defs
                 id="defs99">
                <path
                   id="DejaVuSans-32"
                   d="M 1228,531 H 3431 V 0 H 469 v 531 q 359,372 979,998 621,627 780,809 303,340 423,576 121,236 121,464 0,372 -261,606 -261,235 -680,235 -297,0 -627,-103 -329,-103 -704,-313 v 638 q 381,153 712,231 332,78 607,78 725,0 1156,-363 431,-362 431,-968 0,-288 -108,-546 -107,-257 -392,-607 -78,-91 -497,-524 Q 1991,1309 1228,531 Z"
                   transform="scale(0.015625)" />
              </defs>
              <use
                 xlink:href="#DejaVuSans-30"
                 id="use100" />
              <use
                 xlink:href="#DejaVuSans-2e"
                 x="63.623047"
                 id="use101" />
              <use
                 xlink:href="#DejaVuSans-32"
                 x="95.410156"
                 id="use102" />
            </g>
          </g>
        </g>
        <g
           id="ytick_4">
          <g
             id="line2d_14">
            <g
               id="g103">
              <use
                 xlink:href="#m430e361780"
                 x="57.599998"
                 y="184.53336"
                 style="stroke:#000000;stroke-width:0.8"
                 id="use103" />
            </g>
          </g>
          <g
             id="text_15">
            <!-- 0.3 -->
            <g
               transform="matrix(0.1,0,0,-0.1,34.696875,188.33258)"
               id="g106">
              <defs
                 id="defs103">
                <path
                   id="DejaVuSans-33"
                   d="m 2597,2516 q 453,-97 707,-404 255,-306 255,-756 0,-690 -475,-1069 -475,-378 -1350,-378 -293,0 -604,58 -311,58 -642,174 v 609 q 262,-153 574,-231 313,-78 654,-78 593,0 904,234 311,234 311,681 0,413 -289,645 -289,233 -804,233 h -544 v 519 h 569 q 465,0 712,186 247,186 247,536 0,359 -255,551 -254,193 -729,193 -260,0 -557,-57 -297,-56 -653,-174 v 562 q 360,100 674,150 314,50 592,50 719,0 1137,-327 419,-326 419,-882 0,-388 -222,-655 -222,-267 -631,-370 z"
                   transform="scale(0.015625)" />
              </defs>
              <use
                 xlink:href="#DejaVuSans-30"
                 id="use104" />
              <use
                 xlink:href="#DejaVuSans-2e"
                 x="63.623047"
                 id="use105" />
              <use
                 xlink:href="#DejaVuSans-33"
                 x="95.410156"
                 id="use106" />
            </g>
          </g>
        </g>
        <g
           id="ytick_5">
          <g
             id="line2d_15">
            <g
               id="g107">
              <use
                 xlink:href="#m430e361780"
                 x="57.599998"
                 y="143.51648"
                 style="stroke:#000000;stroke-width:0.8"
                 id="use107" />
            </g>
          </g>
          <g
             id="text_16">
            <!-- 0.4 -->
            <g
               transform="matrix(0.1,0,0,-0.1,34.696875,147.3157)"
               id="g110">
              <defs
                 id="defs107">
                <path
                   id="DejaVuSans-34"
                   d="M 2419,4116 825,1625 h 1594 z m -166,550 h 794 V 1625 h 666 V 1100 H 3047 V 0 H 2419 V 1100 H 313 v 609 z"
                   transform="scale(0.015625)" />
              </defs>
              <use
                 xlink:href="#DejaVuSans-30"
                 id="use108" />
              <use
                 xlink:href="#DejaVuSans-2e"
                 x="63.623047"
                 id="use109" />
              <use
                 xlink:href="#DejaVuSans-34"
                 x="95.410156"
                 id="use110" />
            </g>
          </g>
        </g>
        <g
           id="ytick_6">
          <g
             id="line2d_16">
            <g
               id="g111">
              <use
                 xlink:href="#m430e361780"
                 x="57.599998"
                 y="102.4996"
                 style="stroke:#000000;stroke-width:0.8"
                 id="use111" />
            </g>
          </g>
          <g
             id="text_17">
            <!-- 0.5 -->
            <g
               transform="matrix(0.1,0,0,-0.1,34.696875,106.29882)"
               id="g114">
              <defs
                 id="defs111">
                <path
                   id="DejaVuSans-35"
                   d="M 691,4666 H 3169 V 4134 H 1269 V 2991 q 137,47 274,70 138,23 276,23 781,0 1237,-428 457,-428 457,-1159 Q 3513,744 3044,326 2575,-91 1722,-91 1428,-91 1123,-41 819,9 494,109 v 635 q 281,-153 581,-228 300,-75 634,-75 541,0 856,284 316,284 316,772 0,487 -316,771 -315,285 -856,285 -253,0 -505,-56 -251,-56 -513,-175 z"
                   transform="scale(0.015625)" />
              </defs>
              <use
                 xlink:href="#DejaVuSans-30"
                 id="use112" />
              <use
                 xlink:href="#DejaVuSans-2e"
                 x="63.623047"
                 id="use113" />
              <use
                 xlink:href="#DejaVuSans-35"
                 x="95.410156"
                 id="use114" />
            </g>
          </g>
        </g>
        <g
           id="ytick_7">
          <g
             id="line2d_17">
            <g
               id="g115">
              <use
                 xlink:href="#m430e361780"
                 x="57.599998"
                 y="61.482727"
                 style="stroke:#000000;stroke-width:0.8"
                 id="use115" />
            </g>
          </g>
          <g
             id="text_18">
            <!-- 0.6 -->
            <g
               transform="matrix(0.1,0,0,-0.1,34.696875,65.281945)"
               id="g118">
              <defs
                 id="defs115">
                <path
                   id="DejaVuSans-36"
                   d="m 2113,2584 q -425,0 -674,-291 -248,-290 -248,-796 0,-503 248,-796 249,-292 674,-292 425,0 673,292 248,293 248,796 0,506 -248,796 -248,291 -673,291 z m 1253,1979 v -575 q -238,112 -480,171 -242,60 -480,60 -625,0 -955,-422 -329,-422 -376,-1275 184,272 462,417 279,145 613,145 703,0 1111,-427 408,-426 408,-1160 0,-719 -425,-1154 -425,-434 -1131,-434 -810,0 -1238,620 -428,621 -428,1799 0,1106 525,1764 525,658 1409,658 238,0 480,-47 242,-47 505,-140 z"
                   transform="scale(0.015625)" />
              </defs>
              <use
                 xlink:href="#DejaVuSans-30"
                 id="use116" />
              <use
                 xlink:href="#DejaVuSans-2e"
                 x="63.623047"
                 id="use117" />
              <use
                 xlink:href="#DejaVuSans-36"
                 x="95.410156"
                 id="use118" />
            </g>
          </g>
        </g>
        <g
           id="text_19">
          <!-- score -->
          <g
             transform="matrix(0,-0.1,-0.1,0,28.617188,187.96081)"
             id="g123">
            <defs
               id="defs118">
              <path
                 id="DejaVuSans-63"
                 d="m 3122,3366 v -538 q -244,135 -489,202 -245,67 -495,67 -560,0 -870,-355 -309,-354 -309,-995 0,-641 309,-996 310,-354 870,-354 250,0 495,67 245,67 489,202 V 134 Q 2881,22 2623,-34 2366,-91 2075,-91 1284,-91 818,406 353,903 353,1747 q 0,856 470,1346 471,491 1290,491 265,0 518,-55 253,-54 491,-163 z"
                 transform="scale(0.015625)" />
            </defs>
            <path
               id="use119"
               d="m 44.28125,53.078125 v -8.5 Q 40.484375,46.53125 36.375,47.5 q -4.09375,0.984375 -8.5,0.984375 -6.6875,0 -10.03125,-2.046875 Q 14.5,44.390625 14.5,40.28125 q 0,-3.125 2.390625,-4.90625 2.390625,-1.78125 9.625,-3.390625 l 3.078125,-0.6875 Q 39.15625,29.25 43.1875,25.515625 47.21875,21.78125 47.21875,15.09375 q 0,-7.625 -6.03125,-12.078125 -6.03125,-4.4375 -16.578125,-4.4375 -4.390625,0 -9.15625,0.859375 Q 10.6875,0.296875 5.421875,2 v 9.28125 q 4.984375,-2.59375 9.8125,-3.890625 4.828125,-1.28125 9.578125,-1.28125 6.34375,0 9.75,2.171875 3.421875,2.171875 3.421875,6.125 0,3.65625 -2.46875,5.609375 -2.453125,1.953125 -10.8125,3.765625 l -3.125,0.734375 q -8.34375,1.75 -12.0625,5.390625 -3.703125,3.640625 -3.703125,9.984375 0,7.71875 5.46875,11.90625 Q 16.75,56 26.8125,56 q 4.96875,0 9.359375,-0.734375 4.40625,-0.71875 8.109375,-2.1875 z"
               style="stroke-width:0.015625" />
            <use
               xlink:href="#DejaVuSans-63"
               x="52.099609"
               id="use120" />
            <path
               id="use121"
               d="m 137.68945,48.390625 q -7.21875,0 -11.42187,-5.640625 -4.20313,-5.640625 -4.20313,-15.453125 0,-9.8125 4.17188,-15.453125 4.1875,-5.640625 11.45312,-5.640625 7.1875,0 11.375,5.65625 4.20313,5.671875 4.20313,15.4375 0,9.71875 -4.20313,15.40625 -4.1875,5.6875 -11.375,5.6875 z m 0,7.609375 q 11.71875,0 18.40625,-7.625 6.70313,-7.609375 6.70313,-21.078125 0,-13.421875 -6.70313,-21.078125 -6.6875,-7.640625 -18.40625,-7.640625 -11.76562,0 -18.4375,7.640625 -6.65625,7.65625 -6.65625,21.078125 0,13.46875 6.65625,21.078125 6.67188,7.625 18.4375,7.625 z"
               style="stroke-width:0.015625" />
            <path
               id="use122"
               d="m 209.37109,46.296875 q -1.51562,0.875 -3.29687,1.28125 Q 204.29297,48 202.15234,48 194.52734,48 190.44922,43.046875 186.37109,38.09375 186.37109,28.8125 V 0 h -9.03125 v 54.6875 h 9.03125 v -8.5 q 2.84375,4.984375 7.375,7.390625 Q 198.29297,56 204.79297,56 q 0.92187,0 2.04687,-0.125 1.125,-0.109375 2.48438,-0.359375 z"
               style="stroke-width:0.015625" />
            <path
               id="use123"
               d="m 263.32812,29.59375 v -4.390625 h -41.3125 q 0.59375,-9.28125 5.59375,-14.140625 5,-4.859375 13.9375,-4.859375 5.17188,0 10.03125,1.265625 4.85938,1.265625 9.65625,3.8125 v -8.5 q -4.84375,-2.046875 -9.92187,-3.125 -5.07813,-1.078125 -10.29688,-1.078125 -13.09375,0 -20.73437,7.609375 -7.64063,7.625 -7.64063,20.625 0,13.421875 7.25,21.296875 Q 227.14062,56 239.45312,56 q 11.03125,0 17.45313,-7.109375 6.42187,-7.09375 6.42187,-19.296875 z m -8.98437,2.640625 q -0.0937,7.359375 -4.125,11.75 -4.03125,4.40625 -10.67188,4.40625 -7.51562,0 -12.03125,-4.25 -4.51562,-4.25 -5.20312,-11.96875 z"
               style="stroke-width:0.015625" />
          </g>
        </g>
      </g>
      <g
         id="line2d_18">
        <path
           clip-path="url(#p9acc3d20f7)"
           style="fill:none;stroke:#424242;stroke-width:2.25;stroke-linecap:square"
           id="path123"
           d="" />
      </g>
      <g
         id="line2d_19">
        <path
           clip-path="url(#p9acc3d20f7)"
           style="fill:none;stroke:#424242;stroke-width:2.25;stroke-linecap:square"
           id="path124"
           d="" />
      </g>
      <g
         id="line2d_20">
        <path
           clip-path="url(#p9acc3d20f7)"
           style="fill:none;stroke:#424242;stroke-width:2.25;stroke-linecap:square"
           id="path125"
           d="" />
      </g>
      <g
         id="line2d_21">
        <path
           clip-path="url(#p9acc3d20f7)"
           style="fill:none;stroke:#424242;stroke-width:2.25;stroke-linecap:square"
           id="path126"
           d="" />
      </g>
      <g
         id="line2d_22">
        <path
           clip-path="url(#p9acc3d20f7)"
           style="fill:none;stroke:#424242;stroke-width:2.25;stroke-linecap:square"
           id="path127"
           d="" />
      </g>
      <g
         id="line2d_23">
        <path
           clip-path="url(#p9acc3d20f7)"
           style="fill:none;stroke:#424242;stroke-width:2.25;stroke-linecap:square"
           id="path128"
           d="" />
      </g>
      <g
         id="line2d_24">
        <path
           clip-path="url(#p9acc3d20f7)"
           style="fill:none;stroke:#424242;stroke-width:2.25;stroke-linecap:square"
           id="path129"
           d="" />
      </g>
      <g
         id="line2d_25">
        <path
           clip-path="url(#p9acc3d20f7)"
           style="fill:none;stroke:#424242;stroke-width:2.25;stroke-linecap:square"
           id="path130"
           d="" />
      </g>
      <g
         id="line2d_26">
        <path
           clip-path="url(#p9acc3d20f7)"
           style="fill:none;stroke:#424242;stroke-width:2.25;stroke-linecap:square"
           id="path131"
           d="" />
      </g>
      <g
         id="line2d_27">
        <path
           clip-path="url(#p9acc3d20f7)"
           style="fill:none;stroke:#424242;stroke-width:2.25;stroke-linecap:square"
           id="path132"
           d="" />
      </g>
      <g
         id="patch_13">
        <path
           d="M 57.6,307.584 V 41.472"
           style="fill:none;stroke:#000000;stroke-width:0.8;stroke-linecap:square;stroke-linejoin:miter"
           id="path133" />
      </g>
      <g
         id="patch_14">
        <path
           d="M 414.72,307.584 V 41.472"
           style="fill:none;stroke:#000000;stroke-width:0.8;stroke-linecap:square;stroke-linejoin:miter"
           id="path134" />
      </g>
      <g
         id="patch_15">
        <path
           d="M 57.6,307.584 H 414.72"
           style="fill:none;stroke:#000000;stroke-width:0.8;stroke-linecap:square;stroke-linejoin:miter"
           id="path135" />
      </g>
      <g
         id="patch_16">
        <path
           d="M 57.6,41.472 H 414.72"
           style="fill:none;stroke:#000000;stroke-width:0.8;stroke-linecap:square;stroke-linejoin:miter"
           id="path136" />
      </g>
    </g>
  </g>
  <defs
     id="defs136">
    <clipPath
       id="p9acc3d20f7">
      <rect
         x="57.599998"
         y="41.472"
         width="357.12"
         height="266.112"
         id="rect136" />
    </clipPath>
  </defs>
</svg>
